<svg width="120" height="120" viewBox="0 0 120 120" fill="none" xmlns="http://www.w3.org/2000/svg">
  <defs>
    <linearGradient id="orangeGradient" x1="0%" y1="0%" x2="100%" y2="100%">
      <stop offset="0%" style="stop-color:#ff6600;stop-opacity:1" />
      <stop offset="50%" style="stop-color:#ff8533;stop-opacity:1" />
      <stop offset="100%" style="stop-color:#ffaa66;stop-opacity:1" />
    </linearGradient>
    <linearGradient id="nutGradient" x1="0%" y1="0%" x2="100%" y2="100%">
      <stop offset="0%" style="stop-color:#8B4513;stop-opacity:1" />
      <stop offset="50%" style="stop-color:#CD853F;stop-opacity:1" />
      <stop offset="100%" style="stop-color:#DEB887;stop-opacity:1" />
    </linearGradient>
    <radialGradient id="nutHighlight" cx="30%" cy="30%" r="70%">
      <stop offset="0%" style="stop-color:#F4E4BC;stop-opacity:0.8" />
      <stop offset="100%" style="stop-color:#8B4513;stop-opacity:0.2" />
    </radialGradient>
    <filter id="shadow">
      <feDropShadow dx="3" dy="3" stdDeviation="2" flood-color="#cc4400" flood-opacity="0.5"/>
    </filter>
  </defs>
  
  <!-- Background circle with orange gradient -->
  <circle cx="60" cy="60" r="55" fill="url(#orangeGradient)" stroke="#cc4400" stroke-width="3"/>
  
  <!-- Left nut (peanut shape) -->
  <g filter="url(#shadow)">
    <ellipse cx="42" cy="60" rx="16" ry="22" fill="url(#nutGradient)" stroke="#654321" stroke-width="2"/>
    <ellipse cx="42" cy="60" rx="12" ry="18" fill="url(#nutHighlight)"/>
    <!-- Peanut waist indentation -->
    <ellipse cx="42" cy="60" rx="14" ry="4" fill="#8B4513" opacity="0.6"/>
    <!-- Texture lines -->
    <path d="M 32 45 Q 42 48 52 45" stroke="#654321" stroke-width="1" fill="none" opacity="0.5"/>
    <path d="M 32 75 Q 42 72 52 75" stroke="#654321" stroke-width="1" fill="none" opacity="0.5"/>
  </g>
  
  <!-- Right nut (peanut shape) -->
  <g filter="url(#shadow)">
    <ellipse cx="78" cy="60" rx="16" ry="22" fill="url(#nutGradient)" stroke="#654321" stroke-width="2"/>
    <ellipse cx="78" cy="60" rx="12" ry="18" fill="url(#nutHighlight)"/>
    <!-- Peanut waist indentation -->
    <ellipse cx="78" cy="60" rx="14" ry="4" fill="#8B4513" opacity="0.6"/>
    <!-- Texture lines -->
    <path d="M 68 45 Q 78 48 88 45" stroke="#654321" stroke-width="1" fill="none" opacity="0.5"/>
    <path d="M 68 75 Q 78 72 88 75" stroke="#654321" stroke-width="1" fill="none" opacity="0.5"/>
  </g>
  
  <!-- Simple highlight sparkles for "easy" feeling -->
  <g opacity="0.8">
    <circle cx="35" cy="45" r="2" fill="white"/>
    <circle cx="85" cy="45" r="2" fill="white"/>
    <circle cx="30" cy="70" r="1.5" fill="white"/>
    <circle cx="90" cy="70" r="1.5" fill="white"/>
  </g>
  
  <!-- Optional: Small crack lines to show they're ready to eat -->
  <g opacity="0.4">
    <path d="M 42 38 L 44 42 L 40 46" stroke="#654321" stroke-width="1.5" fill="none"/>
    <path d="M 78 38 L 76 42 L 80 46" stroke="#654321" stroke-width="1.5" fill="none"/>
  </g>
</svg>